<svg xmlns="http://www.w3.org/2000/svg" version="1.1" xmlns:xlink="http://www.w3.org/1999/xlink" xmlns:svgjs="http://svgjs.dev/svgjs" width="128" height="128" viewBox="0 0 128 128"><g transform="matrix(0.8046875,0,0,0.8046875,12.612792253521128,12.612792253521128)"><svg viewBox="0 0 142 142" data-background-color="#ffffff" preserveAspectRatio="xMidYMid meet" height="128" width="128" xmlns="http://www.w3.org/2000/svg" xmlns:xlink="http://www.w3.org/1999/xlink"><g id="tight-bounds" transform="matrix(1,0,0,1,-0.15550000000000352,-0.15550000000000352)"><svg viewBox="0 0 142.31066447748242 142.31066447748242" height="142.31066447748242" width="142.31066447748242"><g><svg></svg></g><g><svg viewBox="0 0 142.31066447748242 142.31066447748242" height="142.31066447748242" width="142.31066447748242"><g><path d="M0 71.155c0-39.298 31.857-71.155 71.155-71.155 39.298 0 71.155 31.857 71.156 71.155 0 39.298-31.857 71.155-71.156 71.156-39.298 0-71.155-31.857-71.155-71.156zM71.155 134.886c35.197 0 63.731-28.533 63.731-63.731 0-35.197-28.533-63.731-63.731-63.73-35.197 0-63.731 28.533-63.73 63.73 0 35.197 28.533 63.731 63.73 63.731z" data-fill-palette-color="tertiary" fill="#ee3e38" stroke="transparent"></path><ellipse rx="68.30911894919156" ry="68.30911894919156" cx="71.15533223874121" cy="71.15533223874121" fill="#ee3e38" stroke="transparent" stroke-width="0" fill-opacity="1" data-fill-palette-color="tertiary"></ellipse></g><g transform="matrix(1,0,0,1,33.17262959647408,29.989108276746492)"><svg viewBox="0 0 75.96540528453426 82.33244792398943" height="82.33244792398943" width="75.96540528453426"><g><svg viewBox="0 0 75.96540528453426 82.33244792398943" height="82.33244792398943" width="75.96540528453426"><g><svg viewBox="0 0 75.96540528453426 82.33244792398943" height="82.33244792398943" width="75.96540528453426"><g id="textblocktransform"><svg viewBox="0 0 75.96540528453426 82.33244792398943" height="82.33244792398943" width="75.96540528453426" id="textblock"><g><svg viewBox="0 0 75.96540528453426 82.33244792398943" height="82.33244792398943" width="75.96540528453426"><g transform="matrix(1,0,0,1,0,0)"><svg width="75.96540528453426" viewBox="0.3 -37.5 34.6 37.5" height="82.33244792398943" data-palette-color="#ffffff"><path d="M31.6-37.25L34.9-37.25 25.2-15.4 21.9 0 13.9 0 17.2-15.4 12.4-34.15Q8.8-32.85 6.88-29.98 4.95-27.1 4.95-23.05L4.95-23.05Q4.95-22.1 5.08-21.4 5.2-20.7 5.5-20.05L5.5-20.05Q5.6-19.85 5.63-19.78 5.65-19.7 5.65-19.65L5.65-19.65Q2.85-19.65 1.58-20.83 0.3-22 0.3-24.5L0.3-24.5Q0.3-27 1.98-29.5 3.65-32 6.65-34L6.65-34Q9.2-35.65 12.13-36.58 15.05-37.5 17.85-37.5L17.85-37.5Q18.2-37.5 18.63-37.48 19.05-37.45 19.85-37.4L19.85-37.4 24.2-19.5 31.6-37.25Z" opacity="1" transform="matrix(1,0,0,1,0,0)" fill="#ffffff" class="undefined-text-0" data-fill-palette-color="quaternary" id="text-0"></path></svg></g></svg></g></svg></g></svg></g><g></g></svg></g></svg></g></svg></g><defs></defs></svg><rect width="142.31066447748242" height="142.31066447748242" fill="none" stroke="none" visibility="hidden"></rect></g></svg></g></svg>