<svg xmlns="http://www.w3.org/2000/svg" version="1.1" xmlns:xlink="http://www.w3.org/1999/xlink" xmlns:svgjs="http://svgjs.dev/svgjs" width="2000" height="2000" viewBox="0 0 2000 2000"><g transform="matrix(1,0,0,1,-0.28443113772425477,-0.28443113772459583)"><svg viewBox="0 0 334 334" data-background-color="#ffffff" preserveAspectRatio="xMidYMid meet" height="2000" width="2000" xmlns="http://www.w3.org/2000/svg" xmlns:xlink="http://www.w3.org/1999/xlink"><g id="tight-bounds" transform="matrix(1,0,0,1,0.04749999999998522,0.04750000000001364)"><svg viewBox="0 0 333.90454557049503 333.90454557049503" height="333.90454557049503" width="333.90454557049503"><g><svg></svg></g><g><svg viewBox="0 0 333.90454557049503 333.90454557049503" height="333.90454557049503" width="333.90454557049503"><g><path d="M0 166.952c0-92.205 74.747-166.952 166.952-166.952 92.205 0 166.952 74.747 166.953 166.952 0 92.205-74.747 166.952-166.953 166.953-92.205 0-166.952-74.747-166.952-166.953zM166.952 316.63c82.665 0 149.677-67.013 149.678-149.678 0-82.665-67.013-149.677-149.678-149.677-82.665 0-149.677 67.013-149.677 149.677 0 82.665 67.013 149.677 149.677 149.678z" data-fill-palette-color="tertiary" fill="#ee3e38" stroke="transparent"></path><ellipse rx="160.27418187383762" ry="160.27418187383762" cx="166.95227278524752" cy="166.95227278524752" fill="#ee3e38" stroke="transparent" stroke-width="0" fill-opacity="1" data-fill-palette-color="tertiary"></ellipse></g><g transform="matrix(1,0,0,1,78.5799785657857,71.17305217166896)"><svg viewBox="0 0 176.74458843892364 191.55844122715712" height="191.55844122715712" width="176.74458843892364"><g><svg viewBox="0 0 176.74458843892364 191.55844122715712" height="191.55844122715712" width="176.74458843892364"><g><svg viewBox="0 0 176.74458843892364 191.55844122715712" height="191.55844122715712" width="176.74458843892364"><g><svg viewBox="0 0 176.74458843892364 191.55844122715712" height="191.55844122715712" width="176.74458843892364"><g id="textblocktransform"><svg viewBox="0 0 176.74458843892364 191.55844122715712" height="191.55844122715712" width="176.74458843892364" id="textblock"><g><svg viewBox="0 0 176.74458843892364 191.55844122715712" height="191.55844122715712" width="176.74458843892364"><g transform="matrix(1,0,0,1,0,0)"><svg width="176.74458843892364" viewBox="0.30000001192092896 -37.5 34.60000228881836 37.5" height="191.55844122715712" data-palette-color="#ffffff"><path d="M31.6-37.25L34.9-37.25 25.2-15.4 21.9 0 13.9 0 17.2-15.4 12.4-34.15Q8.8-32.85 6.88-29.98 4.95-27.1 4.95-23.05L4.95-23.05Q4.95-22.1 5.08-21.4 5.2-20.7 5.5-20.05L5.5-20.05Q5.6-19.85 5.63-19.78 5.65-19.7 5.65-19.65L5.65-19.65Q2.85-19.65 1.58-20.83 0.3-22 0.3-24.5L0.3-24.5Q0.3-27 1.98-29.5 3.65-32 6.65-34L6.65-34Q9.2-35.65 12.13-36.58 15.05-37.5 17.85-37.5L17.85-37.5Q18.2-37.5 18.63-37.48 19.05-37.45 19.85-37.4L19.85-37.4 24.2-19.5 31.6-37.25Z" opacity="1" transform="matrix(1,0,0,1,0,0)" fill="#ffffff" class="undefined-text-0" data-fill-palette-color="quaternary" id="text-0"></path></svg></g></svg></g></svg></g></svg></g><g></g></svg></g></svg></g></svg></g></svg></g><defs></defs></svg><rect width="333.90454557049503" height="333.90454557049503" fill="none" stroke="none" visibility="hidden"></rect></g></svg></g></svg>